<?xml version="1.0" encoding="UTF-8" ?>
<!DOCTYPE svg PUBLIC "-//W3C//DTD SVG 1.1//EN" "http://www.w3.org/Graphics/SVG/1.1/DTD/svg11.dtd">
<svg id="weather34 cold feeling" width="1024pt" height="1024pt" viewBox="0 0 1024 1024" version="1.1" xmlns="http://www.w3.org/2000/svg">
<path fill="#00a5b4" stroke="#00a5b4" stroke-width="5" opacity="1.00" d=" M 494.51 234.81 C 540.38 232.33 586.83 239.59 629.51 256.66 C 704.89 286.23 767.88 345.98 801.13 419.83 C 833.86 491.10 838.02 574.85 812.83 649.09 C 796.25 698.71 766.82 743.90 728.47 779.44 C 688.86 816.32 639.64 842.81 587.00 855.39 C 548.82 864.59 508.92 866.61 470.00 861.40 C 394.70 851.71 323.61 813.51 273.71 756.33 C 245.76 724.64 224.30 687.23 211.13 647.08 C 196.10 601.54 191.92 552.52 198.64 505.06 C 204.31 464.81 217.97 425.69 238.65 390.68 C 271.99 333.69 323.73 287.71 384.21 261.22 C 418.97 245.81 456.56 236.96 494.51 234.81 M 445.47 325.14 C 413.67 331.61 386.26 353.03 369.30 380.31 C 358.96 396.74 351.67 415.00 347.01 433.81 C 343.50 458.24 347.37 482.95 351.99 506.97 C 353.30 513.32 355.36 519.52 356.11 525.98 C 357.27 538.91 359.32 551.74 361.50 564.53 C 356.68 568.16 351.82 571.76 346.96 575.34 C 347.94 593.45 353.34 610.99 360.31 627.63 C 361.81 631.34 363.24 635.13 365.57 638.43 C 369.30 643.74 374.72 647.74 380.68 650.22 C 383.94 651.60 387.49 652.10 390.79 653.37 C 392.81 656.13 393.99 659.40 395.63 662.39 C 410.86 691.61 430.10 719.27 455.37 740.70 C 462.30 746.89 470.25 752.06 479.11 754.99 C 498.03 761.52 518.66 760.42 537.98 756.35 C 548.21 753.85 557.05 747.67 565.07 741.08 C 592.91 717.27 613.62 686.23 629.55 653.49 C 636.87 651.59 644.34 649.20 650.09 644.05 C 654.91 640.12 657.78 634.46 659.93 628.74 C 666.23 613.42 671.91 597.56 673.53 580.99 C 672.97 572.93 665.09 568.70 659.62 563.96 C 661.21 556.52 663.06 549.15 664.91 541.77 C 667.27 531.76 670.99 522.08 672.47 511.87 C 676.21 491.83 674.67 471.27 672.28 451.18 C 669.49 432.99 665.35 414.86 658.06 397.89 C 654.74 390.38 650.97 382.81 645.02 377.01 C 642.12 374.18 640.07 370.64 637.37 367.65 C 627.17 356.12 614.32 347.20 600.61 340.33 C 582.77 331.49 563.37 326.27 543.76 323.24 C 511.13 318.87 477.95 320.19 445.47 325.14 Z" />
<path fill="#555" stroke="#555" stroke-width="5" opacity="1.00" d=" M 445.47 325.14 C 477.95 320.19 511.13 318.87 543.76 323.24 C 563.37 326.27 582.77 331.49 600.61 340.33 C 614.32 347.20 627.17 356.12 637.37 367.65 C 640.07 370.64 642.12 374.18 645.02 377.01 C 650.97 382.81 654.74 390.38 658.06 397.89 C 665.35 414.86 669.49 432.99 672.28 451.18 C 674.67 471.27 676.21 491.83 672.47 511.87 C 670.99 522.08 667.27 531.76 664.91 541.77 C 663.06 549.15 661.21 556.52 659.62 563.96 C 665.09 568.70 672.97 572.93 673.53 580.99 C 671.91 597.56 666.23 613.42 659.93 628.74 C 657.78 634.46 654.91 640.12 650.09 644.05 C 644.34 649.20 636.87 651.59 629.55 653.49 C 613.62 686.23 592.91 717.27 565.07 741.08 C 557.05 747.67 548.21 753.85 537.98 756.35 C 518.66 760.42 498.03 761.52 479.11 754.99 C 470.25 752.06 462.30 746.89 455.37 740.70 C 430.10 719.27 410.86 691.61 395.63 662.39 C 393.99 659.40 392.81 656.13 390.79 653.37 C 387.49 652.10 383.94 651.60 380.68 650.22 C 374.72 647.74 369.30 643.74 365.57 638.43 C 363.24 635.13 361.81 631.34 360.31 627.63 C 353.34 610.99 347.94 593.45 346.96 575.34 C 351.82 571.76 356.68 568.16 361.50 564.53 C 359.32 551.74 357.27 538.91 356.11 525.98 C 355.36 519.52 353.30 513.32 351.99 506.97 C 347.37 482.95 343.50 458.24 347.01 433.81 C 351.67 415.00 358.96 396.74 369.30 380.31 C 386.26 353.03 413.67 331.61 445.47 325.14 M 404.96 435.63 C 403.83 446.99 400.68 458.00 397.79 469.00 C 396.05 475.07 394.67 481.26 392.25 487.11 C 388.00 497.66 385.86 508.88 384.03 520.06 C 381.21 544.29 381.00 568.82 383.36 593.10 C 384.61 602.49 385.45 611.93 385.49 621.41 C 381.30 607.08 377.46 592.65 373.21 578.33 C 368.04 579.43 362.74 579.07 357.52 579.56 C 361.20 600.78 367.12 622.24 379.97 639.89 C 383.38 638.02 386.51 635.63 390.09 634.08 C 392.54 633.55 394.27 635.77 395.33 637.65 C 399.49 645.30 402.83 653.37 406.95 661.05 C 420.05 686.32 436.95 709.82 458.00 729.07 C 463.39 734.45 469.47 739.22 476.37 742.51 C 499.27 753.39 527.59 752.24 549.55 739.58 C 583.44 714.81 606.53 678.36 623.75 640.69 C 625.06 638.04 626.29 633.99 629.97 634.28 C 634.13 634.76 637.49 637.59 640.81 639.90 C 653.57 622.22 659.58 600.81 663.17 579.57 C 660.75 579.48 658.34 579.39 655.94 579.31 C 653.16 590.16 650.84 601.13 648.26 612.03 C 646.12 594.77 644.02 577.50 641.92 560.23 C 640.91 554.17 641.51 547.96 640.18 541.93 C 637.71 523.67 628.43 506.52 614.64 494.32 C 602.54 483.71 587.85 475.86 572.19 472.10 C 581.36 484.61 594.68 493.13 606.84 502.44 C 601.66 502.94 596.54 501.93 591.58 500.55 C 577.44 496.42 564.19 489.77 551.27 482.80 C 530.62 471.66 511.05 458.70 491.53 445.73 C 496.60 454.54 504.10 461.55 511.48 468.40 C 525.67 480.94 540.87 492.28 556.32 503.20 C 537.62 504.58 519.82 497.04 502.85 490.16 C 468.57 475.17 436.24 456.06 404.96 435.63 Z" />
<path fill="#00a5b4" stroke="#00a5b4" stroke-width="5" opacity="1.00" d=" M 404.96 435.63 C 436.24 456.06 468.57 475.17 502.85 490.16 C 519.82 497.04 537.62 504.58 556.32 503.20 C 540.87 492.28 525.67 480.94 511.48 468.40 C 504.10 461.55 496.60 454.54 491.53 445.73 C 511.05 458.70 530.62 471.66 551.27 482.80 C 564.19 489.77 577.44 496.42 591.58 500.55 C 596.54 501.93 601.66 502.94 606.84 502.44 C 594.68 493.13 581.36 484.61 572.19 472.10 C 587.85 475.86 602.54 483.71 614.64 494.32 C 628.43 506.52 637.71 523.67 640.18 541.93 C 641.51 547.96 640.91 554.17 641.92 560.23 C 644.02 577.50 646.12 594.77 648.26 612.03 C 650.84 601.13 653.16 590.16 655.94 579.31 C 658.34 579.39 660.75 579.48 663.17 579.57 C 659.58 600.81 653.57 622.22 640.81 639.90 C 637.49 637.59 634.13 634.76 629.97 634.28 C 626.29 633.99 625.06 638.04 623.75 640.69 C 606.53 678.36 583.44 714.81 549.55 739.58 C 527.59 752.24 499.27 753.39 476.37 742.51 C 469.47 739.22 463.39 734.45 458.00 729.07 C 436.95 709.82 420.05 686.32 406.95 661.05 C 402.83 653.37 399.49 645.30 395.33 637.65 C 394.27 635.77 392.54 633.55 390.09 634.08 C 386.51 635.63 383.38 638.02 379.97 639.89 C 367.12 622.24 361.20 600.78 357.52 579.56 C 362.74 579.07 368.04 579.43 373.21 578.33 C 377.46 592.65 381.30 607.08 385.49 621.41 C 385.45 611.93 384.61 602.49 383.36 593.10 C 381.00 568.82 381.21 544.29 384.03 520.06 C 385.86 508.88 388.00 497.66 392.25 487.11 C 394.67 481.26 396.05 475.07 397.79 469.00 C 400.68 458.00 403.83 446.99 404.96 435.63 M 537.57 529.02 C 537.98 534.50 540.77 539.66 545.33 542.79 C 552.52 547.87 561.17 550.37 569.60 552.57 C 578.03 554.69 587.99 554.02 594.33 547.43 C 574.39 545.42 554.62 539.75 537.57 529.02 M 426.33 547.59 C 433.97 554.64 445.30 554.64 454.73 551.78 C 463.09 549.13 471.69 546.23 478.62 540.69 C 481.89 538.13 482.32 533.82 481.67 530.00 C 464.95 540.21 445.69 545.49 426.33 547.59 M 545.04 569.16 C 549.27 575.49 556.24 580.30 564.01 580.57 C 569.21 580.86 574.15 578.38 578.02 575.09 C 580.24 572.96 579.49 569.44 577.85 567.21 C 575.42 563.56 570.92 562.26 566.85 561.51 C 558.79 560.52 551.83 565.62 545.04 569.16 M 442.54 567.50 C 440.14 570.05 441.86 573.92 444.01 576.03 C 447.76 580.19 453.77 580.78 459.04 580.65 C 466.06 579.87 471.31 574.47 476.06 569.73 C 470.01 565.79 463.52 561.64 456.04 561.58 C 450.89 561.40 446.32 564.30 442.54 567.50 M 490.61 626.60 C 503.10 631.88 517.40 631.36 529.94 626.54 C 517.94 619.95 502.52 619.64 490.61 626.60 M 480.33 673.45 C 474.15 676.49 469.31 681.82 466.70 688.18 C 480.57 684.21 493.19 675.37 508.00 675.26 C 522.82 674.71 535.56 683.43 549.24 687.73 C 548.15 683.17 545.87 678.79 541.95 676.08 C 533.85 670.25 523.59 668.94 513.98 667.52 C 502.57 667.41 490.66 668.13 480.33 673.45 M 498.86 690.30 C 497.53 693.12 496.19 695.94 494.85 698.76 C 506.19 698.67 517.62 698.77 528.78 696.36 C 520.20 690.00 509.00 690.42 498.86 690.30 Z" />
<path fill="#555" stroke="#555" stroke-width="5" opacity="1.00" d=" M 537.57 529.02 C 554.62 539.75 574.39 545.42 594.33 547.43 C 587.99 554.02 578.03 554.69 569.60 552.57 C 561.17 550.37 552.52 547.87 545.33 542.79 C 540.77 539.66 537.98 534.50 537.57 529.02 Z" />
<path fill="#555" stroke="#555" stroke-width="5" opacity="1.00" d=" M 426.33 547.59 C 445.69 545.49 464.95 540.21 481.67 530.00 C 482.32 533.82 481.89 538.13 478.62 540.69 C 471.69 546.23 463.09 549.13 454.73 551.78 C 445.30 554.64 433.97 554.64 426.33 547.59 Z" />
<path fill="#555" stroke="#555" stroke-width="5" opacity="1.00" d=" M 545.04 569.16 C 551.83 565.62 558.79 560.52 566.85 561.51 C 570.92 562.26 575.42 563.56 577.85 567.21 C 579.49 569.44 580.24 572.96 578.02 575.09 C 574.15 578.38 569.21 580.86 564.01 580.57 C 556.24 580.30 549.27 575.49 545.04 569.16 Z" />
<path fill="#555" stroke="#555" stroke-width="5" opacity="1.00" d=" M 442.54 567.50 C 446.32 564.30 450.89 561.40 456.04 561.58 C 463.52 561.64 470.01 565.79 476.06 569.73 C 471.31 574.47 466.06 579.87 459.04 580.65 C 453.77 580.78 447.76 580.19 444.01 576.03 C 441.86 573.92 440.14 570.05 442.54 567.50 Z" />
<path fill="#555" stroke="#555" stroke-width="5" opacity="1.00" d=" M 490.61 626.60 C 502.52 619.64 517.94 619.95 529.94 626.54 C 517.40 631.36 503.10 631.88 490.61 626.60 Z" />
<path fill="#555" stroke="#555" stroke-width="5" opacity="1.00" d=" M 480.33 673.45 C 490.66 668.13 502.57 667.41 513.98 667.52 C 523.59 668.94 533.85 670.25 541.95 676.08 C 545.87 678.79 548.15 683.17 549.24 687.73 C 535.56 683.43 522.82 674.71 508.00 675.26 C 493.19 675.37 480.57 684.21 466.70 688.18 C 469.31 681.82 474.15 676.49 480.33 673.45 Z" />
<path fill="#555" stroke="#555" stroke-width="5" opacity="1.00" d=" M 498.86 690.30 C 509.00 690.42 520.20 690.00 528.78 696.36 C 517.62 698.77 506.19 698.67 494.85 698.76 C 496.19 695.94 497.53 693.12 498.86 690.30 Z" />
</svg>
