
<svg width="140px" height="130px" viewBox="0 0 130 130"  version="1.1" xmlns="http://www.w3.org/2000/svg">
<path fill="#ed7716" opacity="1.00" d=" M 45.06 17.70 C 52.33 18.69 59.60 19.69 66.89 20.51 C 74.53 21.34 82.19 24.95 86.68 31.35 C 91.51 39.37 90.89 49.22 89.03 58.05 C 90.02 58.48 91.01 58.91 92.00 59.34 C 93.46 65.82 91.74 73.22 86.53 77.59 C 80.32 82.85 77.82 91.36 70.87 95.86 C 64.64 99.65 56.05 99.17 50.33 94.63 C 46.06 91.07 43.48 86.07 40.30 81.62 C 38.54 79.08 35.62 77.67 33.86 75.15 C 31.52 70.84 29.70 66.06 30.16 61.07 C 31.29 59.90 32.43 58.75 33.58 57.61 C 32.75 52.05 31.30 46.42 32.35 40.78 C 32.92 35.44 36.71 31.28 38.26 26.26 C 39.71 25.76 41.17 25.27 42.63 24.77 C 43.44 22.42 44.24 20.06 45.06 17.70 M 47.06 21.39 C 46.49 23.36 45.91 25.33 45.33 27.29 C 44.00 27.92 42.67 28.55 41.35 29.20 C 39.85 33.30 36.19 36.46 35.80 40.97 C 34.61 47.71 36.76 54.35 38.15 60.88 C 36.56 61.32 34.98 61.76 33.39 62.20 C 34.02 66.47 35.28 70.62 37.35 74.42 C 39.25 75.45 41.19 76.59 42.40 78.46 C 45.78 83.36 48.46 89.04 53.49 92.53 C 59.34 96.77 68.25 95.33 72.68 89.68 C 77.43 84.93 79.14 77.47 85.45 74.33 C 88.37 71.02 88.62 66.28 89.46 62.13 C 87.27 61.61 84.41 62.04 82.89 60.02 C 80.79 55.62 79.84 50.73 77.56 46.39 C 76.07 43.77 73.15 42.07 70.13 42.06 C 63.50 41.88 56.80 42.29 50.26 40.88 C 48.65 44.43 46.22 47.77 42.40 49.13 C 44.79 45.65 47.48 42.29 48.81 38.22 C 57.23 41.08 66.31 38.88 74.77 41.20 C 81.34 44.88 82.08 53.23 84.52 59.63 C 85.82 54.51 87.66 49.33 87.07 43.96 C 86.72 36.93 82.89 29.84 76.37 26.76 C 67.17 22.51 56.78 23.44 47.06 21.39 Z" />
<path fill="#ed7716" opacity="1.00" d=" M 45.76 55.97 C 49.15 55.02 52.91 53.80 56.23 55.69 C 52.86 56.80 49.08 57.64 45.76 55.97 Z" />
<path fill="#ed7716" opacity="1.00" d=" M 66.04 54.52 C 69.15 54.78 72.32 54.76 75.37 55.45 C 75.62 55.80 76.13 56.51 76.38 56.87 C 72.78 57.13 68.81 57.25 66.04 54.52 Z" />
<path fill="#ed7716" opacity="1.00" d=" M 47.72 61.67 C 49.89 60.54 52.97 59.08 54.63 61.80 C 53.55 62.58 52.46 63.35 51.35 64.10 C 50.14 63.29 48.92 62.49 47.72 61.67 Z" />
<path fill="#ed7716" opacity="1.00" d=" M 68.13 60.80 C 70.37 60.35 72.65 60.27 74.90 60.76 C 73.92 61.66 73.45 63.45 71.99 63.68 C 69.98 64.28 69.17 62.02 68.13 60.80 Z" />
<path fill="#ed7716" opacity="1.00" d=" M 57.08 71.45 C 60.00 71.31 62.94 71.32 65.87 71.49 C 63.19 73.34 59.70 73.53 57.08 71.45 Z" />
<path fill="#ed7716" opacity="1.00" d=" M 52.48 83.98 C 54.93 81.85 57.43 79.06 60.96 79.07 C 64.69 78.72 67.48 81.56 70.31 83.51 C 68.53 86.37 66.32 82.35 64.29 81.73 C 60.67 79.66 57.01 82.36 54.39 84.74 C 53.91 84.55 52.95 84.17 52.48 83.98 Z" />
</svg>
