<svg width="140px" height="130px" viewBox="0 0 130 130"  version="1.1" xmlns="http://www.w3.org/2000/svg" id="weather34 feels warm">
<path fill="#ff8841"  d=" M 45.19 17.99 C 51.54 18.28 57.73 19.91 64.08 20.14 C 72.62 20.64 81.87 23.77 86.70 31.28 C 91.65 39.29 91.02 49.21 89.00 58.03 C 89.99 58.48 90.99 58.93 92.00 59.38 C 93.74 64.52 92.06 69.98 89.58 74.56 C 87.89 77.49 84.39 78.70 82.61 81.57 C 79.28 86.48 76.42 91.95 71.55 95.55 C 64.84 100.00 54.96 99.51 49.20 93.69 C 45.36 90.03 42.90 85.27 39.89 80.98 C 38.15 78.45 34.76 77.49 33.46 74.60 C 31.39 70.47 29.44 65.89 30.23 61.17 C 30.91 59.65 32.47 58.79 33.62 57.66 C 31.79 49.63 30.46 40.42 35.09 33.06 C 36.55 31.01 37.53 28.69 38.15 26.26 C 39.65 25.76 41.16 25.28 42.68 24.79 C 43.09 22.39 43.68 19.96 45.19 17.99 M 47.06 21.40 C 46.48 23.37 45.90 25.33 45.33 27.30 C 43.96 27.93 42.60 28.56 41.25 29.21 C 40.50 33.27 36.33 35.68 35.94 39.90 C 34.40 46.98 36.49 54.04 38.13 60.89 C 36.54 61.35 34.96 61.80 33.38 62.26 C 33.87 66.55 35.12 70.68 37.27 74.43 C 39.07 75.29 41.04 76.14 42.12 77.93 C 45.15 82.49 47.66 87.50 51.73 91.27 C 56.31 95.94 64.29 96.28 69.60 92.66 C 74.57 88.77 77.42 83.01 80.83 77.85 C 81.89 76.06 83.86 75.23 85.67 74.41 C 88.19 70.76 88.93 66.35 89.44 62.04 C 87.14 61.57 83.74 62.21 82.53 59.61 C 80.87 55.50 79.92 51.11 78.03 47.09 C 76.59 44.09 73.41 41.93 70.04 42.01 C 63.41 41.85 56.67 42.49 50.17 40.83 C 48.78 44.48 46.37 47.88 42.50 49.17 C 44.88 45.65 47.57 42.27 48.85 38.15 C 56.93 41.41 65.84 38.88 74.14 40.82 C 81.53 44.05 81.87 53.18 84.61 59.70 C 86.21 54.29 87.76 48.68 87.02 42.98 C 86.52 36.25 82.68 29.67 76.48 26.71 C 67.32 22.24 56.78 23.69 47.06 21.40 Z" />
<path fill="#ff8841"  d=" M 46.12 56.87 C 49.16 54.11 53.57 54.46 56.83 56.62 C 53.27 56.88 49.69 56.97 46.12 56.87 Z" />
<path fill="#ff8841"  d=" M 66.16 56.71 C 69.31 54.28 73.63 54.37 76.84 56.65 C 73.28 56.84 69.72 56.87 66.16 56.71 Z" />
<path fill="#ff8841"  d=" M 47.63 61.84 C 49.29 60.67 51.46 59.40 53.46 60.58 C 54.64 61.61 54.03 63.38 52.52 63.68 C 50.67 63.98 49.19 62.55 47.63 61.84 Z" />
<path fill="#ff8841"  d=" M 68.30 60.91 C 70.46 60.02 73.02 59.66 74.79 61.51 C 73.68 62.36 72.83 64.07 71.18 63.77 C 69.58 63.89 69.16 61.86 68.30 60.91 Z" />
<path fill="#ff8841"  d=" M 57.16 71.35 C 60.04 71.19 62.93 71.20 65.81 71.39 C 63.29 73.57 59.61 73.75 57.16 71.35 Z" />
<path fill="#ff8841"  d=" M 53.08 81.09 C 58.64 80.87 64.21 81.00 69.77 81.31 C 69.14 81.80 68.51 82.30 67.89 82.79 C 63.27 82.86 58.64 83.23 54.04 82.83 C 53.80 82.39 53.32 81.53 53.08 81.09 Z" />
</svg>
