<?xml version="1.0" encoding="UTF-8" ?>
<svg width="120pt" height="120pt" viewBox="0 0 120 120" version="1.1" xmlns="http://www.w3.org/2000/svg" id="weather34 feels pleasant" >
<path fill="rgba(212, 168, 32, 1.000)" d=" M 44.97 17.76 C 51.66 18.65 58.33 19.75 65.07 20.17 C 72.85 20.73 80.84 23.80 85.87 29.96 C 91.75 38.04 91.27 48.72 89.05 57.99 C 90.12 58.50 91.19 59.01 92.26 59.52 C 93.84 66.67 91.26 75.08 84.92 79.14 C 80.64 83.26 78.63 89.21 74.18 93.23 C 68.06 100.03 56.31 100.58 49.71 94.19 C 44.96 90.14 42.66 84.12 38.54 79.59 C 31.83 75.54 29.06 66.87 30.60 59.42 C 31.62 58.98 32.65 58.54 33.67 58.10 C 31.95 52.26 31.73 46.10 32.33 40.07 C 33.19 35.04 36.64 30.99 38.26 26.21 C 39.70 25.66 41.16 25.17 42.63 24.72 C 43.19 22.33 44.00 20.01 44.97 17.76 M 47.00 21.53 C 46.58 23.40 46.16 25.28 45.74 27.15 C 44.27 27.85 42.80 28.55 41.33 29.25 C 40.49 32.77 37.42 35.10 36.18 38.43 C 34.72 45.99 36.06 53.78 38.28 61.06 C 36.68 61.48 35.08 61.91 33.48 62.34 C 33.96 66.55 35.17 70.62 37.25 74.32 C 39.01 75.24 41.05 75.98 42.11 77.79 C 45.55 82.96 48.36 88.80 53.41 92.65 C 58.52 96.12 65.93 95.80 70.64 91.76 C 74.84 88.04 77.41 82.96 80.44 78.33 C 81.91 75.85 84.86 74.88 86.59 72.67 C 88.42 69.51 88.92 65.85 89.35 62.29 C 87.03 61.74 83.68 62.20 82.48 59.61 C 80.60 55.31 80.02 50.48 77.60 46.40 C 76.04 44.24 73.80 42.17 70.97 42.12 C 64.08 41.83 57.09 42.55 50.32 40.91 C 48.73 44.60 46.22 48.05 42.26 49.40 C 44.80 45.80 47.86 42.45 48.72 37.96 C 56.70 41.26 65.43 39.14 73.66 40.56 C 81.42 43.46 81.88 52.87 84.48 59.54 C 86.96 54.39 87.14 48.51 86.90 42.90 C 86.55 36.37 82.88 30.00 76.95 27.05 C 67.70 22.27 56.92 23.69 47.00 21.53 Z" />
<path fill="rgba(212, 168, 32, 1.000)" d=" M 45.95 56.55 C 48.59 54.94 51.70 54.84 54.70 54.84 C 55.11 55.40 55.93 56.52 56.34 57.08 C 52.87 56.96 49.40 56.89 45.95 56.55 Z" />
<path fill="rgba(212, 168, 32, 1.000)" d=" M 65.98 56.62 C 69.33 54.35 73.63 54.43 77.00 56.61 C 73.34 57.04 69.64 57.05 65.98 56.62 Z" />
<path fill="rgba(212, 168, 32, 1.000)" d=" M 47.32 61.57 C 49.33 60.73 51.55 59.36 53.74 60.53 C 54.40 61.95 54.12 63.31 52.49 63.80 C 50.48 64.06 48.96 62.42 47.32 61.57 Z" />
<path fill="rgba(212, 168, 32, 1.000)" d=" M 67.68 60.77 C 70.05 60.26 72.48 59.97 74.84 60.66 C 73.78 61.99 73.21 64.52 71.01 63.95 C 69.66 63.18 68.73 61.89 67.68 60.77 Z" />
<path fill="rgba(212, 168, 32, 1.000)" d=" M 58.02 70.94 C 60.72 71.08 63.42 71.23 66.11 71.55 C 63.69 73.01 60.85 73.14 58.09 73.18 C 58.07 72.62 58.03 71.50 58.02 70.94 Z" />
<path fill="rgba(212, 168, 32, 1.000)" d=" M 52.20 78.45 C 55.33 80.14 58.37 82.05 61.78 83.16 C 64.69 81.70 67.56 80.17 70.47 78.71 C 68.61 83.20 63.12 86.21 58.45 84.27 C 55.58 83.38 53.63 80.97 52.20 78.45 Z" />
</svg>
