<svg width="140px" height="130px" viewBox="0 0 130 130"  version="1.1" xmlns="http://www.w3.org/2000/svg">
<path fill="#ecb454" opacity="1.00" d=" M 45.08 17.96 C 53.12 19.00 61.21 19.66 69.24 20.86 C 76.89 22.31 84.85 26.43 88.07 33.92 C 91.36 41.52 90.65 50.12 89.00 58.04 C 90.03 58.49 91.05 58.94 92.08 59.38 C 93.50 65.77 91.81 73.31 86.66 77.61 C 80.00 82.73 77.81 91.97 70.31 96.25 C 64.12 99.44 55.83 99.28 50.36 94.68 C 46.08 91.11 43.44 86.13 40.30 81.64 C 38.60 79.07 35.63 77.71 33.89 75.19 C 31.54 70.91 29.76 66.14 30.11 61.18 C 31.25 59.93 32.41 58.71 33.60 57.51 C 32.41 52.05 31.51 46.40 32.39 40.82 C 32.84 35.44 36.72 31.29 38.24 26.24 C 39.68 25.76 41.13 25.29 42.57 24.81 C 43.18 22.45 44.02 20.16 45.08 17.96 M 47.06 21.40 C 46.48 23.36 45.91 25.32 45.33 27.28 C 44.01 27.92 42.69 28.55 41.37 29.19 C 39.88 33.30 36.19 36.45 35.82 40.97 C 34.64 47.71 36.74 54.35 38.13 60.88 C 36.54 61.35 34.95 61.81 33.36 62.27 C 34.04 66.48 35.29 70.57 37.28 74.35 C 42.99 76.76 44.76 83.14 48.46 87.56 C 51.75 92.19 57.21 95.82 63.11 94.86 C 68.45 94.53 72.49 90.50 75.34 86.32 C 78.53 82.12 80.40 76.37 85.72 74.33 C 88.08 70.68 88.79 66.37 89.44 62.16 C 87.16 61.58 83.83 62.07 82.60 59.54 C 80.86 55.45 79.83 51.09 77.92 47.07 C 76.54 44.08 73.39 42.05 70.10 42.06 C 63.49 41.89 56.80 42.30 50.29 40.88 C 48.66 44.45 46.19 47.66 42.54 49.31 C 44.91 45.75 47.15 42.10 48.85 38.16 C 56.60 40.85 64.88 39.33 72.83 40.65 C 75.45 41.02 77.65 42.87 78.98 45.08 C 81.80 49.54 82.86 54.77 84.60 59.68 C 86.14 53.90 87.94 47.93 86.81 41.89 C 85.99 35.30 81.83 28.98 75.57 26.43 C 66.55 22.55 56.51 23.39 47.06 21.40 Z" />
<path fill="#ecb454" opacity="1.00" d=" M 46.00 56.71 C 49.31 54.44 53.47 54.65 56.92 56.48 C 53.29 56.76 49.64 56.86 46.00 56.71 Z" />
<path fill="#ecb454" opacity="1.00" d=" M 66.03 56.57 C 69.42 54.57 73.52 54.59 76.93 56.51 C 73.30 56.74 69.66 56.76 66.03 56.57 Z" />
<path fill="#ecb454" opacity="1.00" d=" M 47.45 61.82 C 49.42 60.88 51.92 59.17 53.95 60.99 C 54.52 65.31 49.43 63.20 47.45 61.82 Z" />
<path fill="#ecb454" opacity="1.00" d=" M 68.06 60.88 C 70.43 60.22 72.89 60.08 75.07 61.39 C 73.71 62.35 72.45 64.22 70.53 63.70 C 69.65 62.80 68.83 61.87 68.06 60.88 Z" />
<path fill="#ecb454" opacity="1.00" d=" M 56.99 71.50 C 59.98 71.31 62.98 71.32 65.96 71.53 C 63.18 73.31 59.74 73.42 56.99 71.50 Z" />
<path fill="#ecb454" opacity="1.00" d=" M 52.66 81.28 C 58.43 81.02 64.23 81.13 70.00 81.49 C 67.06 83.53 63.38 82.80 60.03 82.98 C 57.52 82.77 54.44 83.59 52.66 81.28 Z" />
</svg>
