<svg width="140px" height="130px" viewBox="0 0 130 130"  version="1.1" xmlns="http://www.w3.org/2000/svg" id="weather34 feels very warm">
<path fill="#d65a4a"  d=" M 45.06 17.70 C 53.29 19.26 61.69 19.57 69.94 20.90 C 77.62 22.54 85.61 27.03 88.42 34.78 C 91.61 42.13 90.59 50.41 89.03 58.03 C 90.04 58.50 91.06 58.97 92.07 59.44 C 93.93 66.54 91.20 74.95 84.96 79.05 C 80.09 83.63 78.00 90.54 72.58 94.66 C 66.76 99.56 57.70 99.75 51.43 95.59 C 46.57 91.98 43.66 86.55 40.36 81.63 C 38.62 78.73 34.99 77.63 33.45 74.60 C 31.37 70.46 29.46 65.86 30.24 61.13 C 31.01 59.67 32.47 58.77 33.62 57.64 C 32.20 51.48 31.20 44.96 32.69 38.72 C 33.66 34.19 37.22 30.81 38.19 26.27 C 39.66 25.78 41.14 25.29 42.62 24.79 C 43.24 22.36 44.06 19.99 45.06 17.70 M 47.06 21.39 C 46.49 23.36 45.91 25.33 45.34 27.30 C 43.99 27.92 42.64 28.54 41.30 29.17 C 40.34 33.21 36.38 35.77 35.90 39.99 C 34.40 47.04 36.49 54.07 38.15 60.87 C 36.56 61.32 34.97 61.77 33.38 62.22 C 33.88 66.51 35.11 70.66 37.26 74.42 C 39.04 75.31 41.01 76.17 42.11 77.94 C 45.16 82.49 47.66 87.52 51.74 91.28 C 56.33 95.95 64.31 96.29 69.62 92.65 C 74.61 88.77 77.42 82.96 80.86 77.81 C 81.94 76.06 83.91 75.25 85.69 74.40 C 88.17 70.74 88.93 66.36 89.47 62.06 C 87.17 61.53 83.70 62.22 82.54 59.56 C 80.86 55.47 79.92 51.09 78.02 47.08 C 76.60 44.07 73.42 41.96 70.06 42.00 C 63.42 41.86 56.69 42.45 50.18 40.84 C 48.72 44.49 46.35 47.98 42.35 49.08 C 44.87 45.67 47.60 42.31 48.84 38.17 C 56.95 41.38 65.86 38.89 74.16 40.83 C 81.47 44.09 81.94 53.12 84.52 59.67 C 86.35 53.97 87.93 47.98 86.91 41.96 C 86.14 35.37 82.08 29.13 75.92 26.43 C 66.85 22.30 56.59 23.63 47.06 21.39 Z" />
<path fill="#d65a4a"  d=" M 66.12 54.46 C 69.24 54.63 72.39 54.70 75.47 55.28 C 75.65 55.69 76.00 56.52 76.17 56.94 C 72.66 57.11 68.58 57.54 66.12 54.46 Z" />
<path fill="#d65a4a"  d=" M 45.60 55.93 C 48.97 55.29 53.35 53.23 56.27 55.91 C 52.81 56.61 48.87 57.97 45.60 55.93 Z" />
<path fill="#d65a4a"  d=" M 47.69 61.66 C 49.68 60.72 52.24 59.04 54.20 61.05 C 54.34 62.94 52.58 63.38 51.21 64.00 C 50.03 63.23 48.86 62.45 47.69 61.66 Z" />
<path fill="#d65a4a"  d=" M 68.23 60.86 C 70.36 60.07 72.62 60.04 74.77 60.79 C 73.91 62.06 73.14 64.08 71.23 63.76 C 69.59 63.90 69.13 61.81 68.23 60.86 Z" />
<path fill="#d65a4a"  d=" M 57.14 71.35 C 60.03 71.14 62.92 71.18 65.81 71.38 C 63.26 73.54 59.63 73.81 57.14 71.35 Z" />
<path fill="#d65a4a"  d=" M 52.49 83.93 C 54.94 81.81 57.41 78.97 60.95 79.02 C 64.69 78.63 67.51 81.44 70.23 83.53 C 69.91 83.89 69.25 84.62 68.92 84.98 C 66.57 83.19 64.19 80.74 60.98 80.97 C 58.27 81.06 56.36 83.28 54.33 84.79 C 53.72 84.50 53.10 84.21 52.49 83.93 Z" />
</svg>
