<?xml version="1.0" encoding="UTF-8" ?>
<!DOCTYPE svg PUBLIC "-//W3C//DTD SVG 1.1//EN" "http://www.w3.org/Graphics/SVG/1.1/DTD/svg11.dtd">
<svg id="weather34 hot feeling" width="1024pt" height="1024pt" viewBox="0 0 1024 1024" version="1.1" xmlns="http://www.w3.org/2000/svg">
<path fill="#d65a4a" stroke="#d65a4a" stroke-width="5" opacity="1.00" d=" M 490.51 232.80 C 537.37 229.74 584.95 237.05 628.58 254.48 C 699.31 282.31 759.21 336.62 793.68 404.38 C 832.05 478.38 838.59 567.99 811.76 646.87 C 795.85 694.52 768.07 738.10 731.91 772.94 C 691.55 812.04 640.60 840.11 585.94 853.17 C 507.59 872.22 422.07 860.21 352.38 819.50 C 286.27 781.58 234.65 718.96 210.66 646.57 C 195.16 600.66 190.80 551.11 197.53 503.16 C 204.31 454.45 222.92 407.47 251.21 367.26 C 274.48 334.02 304.23 305.32 338.28 283.25 C 383.56 253.70 436.56 236.17 490.51 232.80 M 456.16 327.72 C 428.63 329.98 402.99 344.36 384.44 364.50 C 370.51 379.60 360.37 397.90 353.33 417.13 C 349.87 427.14 346.08 437.28 345.93 448.01 C 344.58 474.95 349.48 501.79 356.04 527.82 C 357.71 540.10 359.35 552.40 361.46 564.62 C 356.55 568.24 351.60 571.83 346.78 575.58 C 348.23 593.84 353.42 611.58 360.61 628.37 C 362.91 634.79 366.39 640.98 371.95 645.12 C 377.30 649.67 384.16 651.45 390.75 653.34 C 393.89 658.03 395.86 663.44 398.77 668.29 C 410.11 689.13 423.57 708.93 439.95 726.14 C 448.37 734.71 457.11 743.18 467.32 749.61 C 488.37 761.71 514.04 761.31 537.16 756.54 C 547.73 754.20 556.85 747.82 565.09 741.06 C 592.92 717.25 613.62 686.22 629.55 653.49 C 637.55 651.48 645.71 648.66 651.63 642.62 C 656.80 637.83 658.97 630.96 661.60 624.64 C 667.20 610.61 672.07 596.07 673.53 580.97 C 673.06 573.27 665.64 569.11 660.42 564.56 C 663.32 551.19 666.91 537.98 670.70 524.84 C 677.09 498.13 675.01 470.20 670.29 443.40 C 666.54 424.72 661.47 405.89 651.65 389.40 C 648.78 384.11 643.84 380.48 640.50 375.55 C 634.33 367.41 626.52 360.62 618.21 354.74 C 594.51 338.25 566.05 329.99 537.67 326.46 C 510.57 323.57 483.16 324.07 456.16 327.72 Z" />
<path fill="#000" stroke="#000" stroke-width="5" opacity="1.00" d=" M 456.16 327.72 C 483.16 324.07 510.57 323.57 537.67 326.46 C 566.05 329.99 594.51 338.25 618.21 354.74 C 626.52 360.62 634.33 367.41 640.50 375.55 C 643.84 380.48 648.78 384.11 651.65 389.40 C 661.47 405.89 666.54 424.72 670.29 443.40 C 675.01 470.20 677.09 498.13 670.70 524.84 C 666.91 537.98 663.32 551.19 660.42 564.56 C 665.64 569.11 673.06 573.27 673.53 580.97 C 672.07 596.07 667.20 610.61 661.60 624.64 C 658.97 630.96 656.80 637.83 651.63 642.62 C 645.71 648.66 637.55 651.48 629.55 653.49 C 613.62 686.22 592.92 717.25 565.09 741.06 C 556.85 747.82 547.73 754.20 537.16 756.54 C 514.04 761.31 488.37 761.71 467.32 749.61 C 457.11 743.18 448.37 734.71 439.95 726.14 C 423.57 708.93 410.11 689.13 398.77 668.29 C 395.86 663.44 393.89 658.03 390.75 653.34 C 384.16 651.45 377.30 649.67 371.95 645.12 C 366.39 640.98 362.91 634.79 360.61 628.37 C 353.42 611.58 348.23 593.84 346.78 575.58 C 351.60 571.83 356.55 568.24 361.46 564.62 C 359.35 552.40 357.71 540.10 356.04 527.82 C 349.48 501.79 344.58 474.95 345.93 448.01 C 346.08 437.28 349.87 427.14 353.33 417.13 C 360.37 397.90 370.51 379.60 384.44 364.50 C 402.99 344.36 428.63 329.98 456.16 327.72 M 404.96 439.62 C 403.84 450.97 400.69 461.96 397.80 472.94 C 396.29 478.15 395.11 483.46 393.24 488.56 C 386.91 503.99 383.99 520.61 382.75 537.17 C 381.24 557.13 381.42 577.20 383.36 597.12 C 384.60 606.45 385.46 615.85 385.47 625.28 C 380.92 609.77 376.74 594.16 372.17 578.66 C 367.31 579.29 362.40 579.12 357.52 579.57 C 361.20 600.78 367.12 622.24 379.97 639.88 C 383.35 638.03 386.46 635.70 389.97 634.10 C 393.41 633.45 395.11 637.17 396.42 639.66 C 403.72 654.72 410.91 669.90 420.20 683.87 C 431.32 701.23 444.70 717.13 459.99 730.96 C 472.61 743.46 490.48 749.62 508.04 749.83 C 522.46 750.31 537.05 746.82 549.56 739.58 C 583.43 714.81 606.53 678.36 623.75 640.69 C 625.04 638.02 626.30 633.96 630.01 634.28 C 634.15 634.78 637.51 637.59 640.81 639.91 C 653.57 622.22 659.58 600.80 663.16 579.56 C 661.02 579.49 658.89 579.43 656.77 579.36 C 653.92 591.57 651.06 603.77 648.28 616.00 C 646.09 598.74 644.02 581.47 641.92 564.21 C 640.89 558.16 641.52 551.95 640.17 545.94 C 637.61 526.72 627.42 508.82 612.53 496.47 C 600.80 486.89 586.98 479.61 572.21 476.11 C 574.98 480.43 578.79 483.92 582.52 487.40 C 590.21 494.28 598.57 500.37 606.91 506.43 C 601.44 507.01 596.06 505.79 590.83 504.35 C 576.28 499.93 562.64 493.01 549.33 485.74 C 529.39 474.86 510.45 462.29 491.54 449.74 C 496.61 458.58 504.15 465.60 511.55 472.46 C 525.71 484.97 540.88 496.29 556.32 507.19 C 543.91 508.40 531.69 504.79 520.04 500.91 C 498.11 493.02 477.22 482.52 456.89 471.19 C 453.13 468.84 448.85 467.45 445.33 464.71 C 431.77 456.53 418.09 448.49 404.96 439.62 Z" />
<path fill="#d65a4a" stroke="#d65a4a" stroke-width="5" opacity="1.00" d=" M 404.96 439.62 C 418.09 448.49 431.77 456.53 445.33 464.71 C 448.85 467.45 453.13 468.84 456.89 471.19 C 477.22 482.52 498.11 493.02 520.04 500.91 C 531.69 504.79 543.91 508.40 556.32 507.19 C 540.88 496.29 525.71 484.97 511.55 472.46 C 504.15 465.60 496.61 458.58 491.54 449.74 C 510.45 462.29 529.39 474.86 549.33 485.74 C 562.64 493.01 576.28 499.93 590.83 504.35 C 596.06 505.79 601.44 507.01 606.91 506.43 C 598.57 500.37 590.21 494.28 582.52 487.40 C 578.79 483.92 574.98 480.43 572.21 476.11 C 586.98 479.61 600.80 486.89 612.53 496.47 C 627.42 508.82 637.61 526.72 640.17 545.94 C 641.52 551.95 640.89 558.16 641.92 564.21 C 644.02 581.47 646.09 598.74 648.28 616.00 C 651.06 603.77 653.92 591.57 656.77 579.36 C 658.89 579.43 661.02 579.49 663.16 579.56 C 659.58 600.80 653.57 622.22 640.81 639.91 C 637.51 637.59 634.15 634.78 630.01 634.28 C 626.30 633.96 625.04 638.02 623.75 640.69 C 606.53 678.36 583.43 714.81 549.56 739.58 C 537.05 746.82 522.46 750.31 508.04 749.83 C 490.48 749.62 472.61 743.46 459.99 730.96 C 444.70 717.13 431.32 701.23 420.20 683.87 C 410.91 669.90 403.72 654.72 396.42 639.66 C 395.11 637.17 393.41 633.45 389.97 634.10 C 386.46 635.70 383.35 638.03 379.97 639.88 C 367.12 622.24 361.20 600.78 357.52 579.57 C 362.40 579.12 367.31 579.29 372.17 578.66 C 376.74 594.16 380.92 609.77 385.47 625.28 C 385.46 615.85 384.60 606.45 383.36 597.12 C 381.42 577.20 381.24 557.13 382.75 537.17 C 383.99 520.61 386.91 503.99 393.24 488.56 C 395.11 483.46 396.29 478.15 397.80 472.94 C 400.69 461.96 403.84 450.97 404.96 439.62 M 537.58 529.02 C 537.98 534.23 540.47 539.20 544.71 542.31 C 551.76 547.63 560.45 550.10 568.85 552.39 C 577.46 554.69 587.80 554.25 594.32 547.42 C 574.39 545.43 554.62 539.75 537.58 529.02 M 426.34 547.59 C 433.95 554.64 445.27 554.63 454.67 551.80 C 463.06 549.14 471.69 546.23 478.65 540.67 C 481.89 538.11 482.35 533.81 481.66 530.00 C 464.95 540.21 445.69 545.49 426.34 547.59 M 545.05 569.16 C 549.25 575.49 556.21 580.27 563.95 580.57 C 569.18 580.88 574.13 578.39 578.03 575.09 C 580.06 573.14 579.60 569.93 578.21 567.76 C 575.72 563.52 570.57 562.04 566.00 561.41 C 558.24 560.92 551.61 565.72 545.05 569.16 M 442.53 567.51 C 440.14 570.06 441.86 573.93 444.01 576.04 C 447.77 580.22 453.82 580.78 459.10 580.65 C 466.10 579.83 471.33 574.46 476.06 569.73 C 470.01 565.78 463.52 561.65 456.04 561.57 C 450.88 561.40 446.32 564.31 442.53 567.51 M 490.62 626.60 C 503.11 631.88 517.39 631.36 529.93 626.55 C 517.95 619.93 502.51 619.64 490.62 626.60 M 480.34 673.44 C 474.16 676.48 469.30 681.81 466.71 688.19 C 480.57 684.20 493.19 675.37 508.00 675.26 C 522.83 674.71 535.57 683.44 549.25 687.73 C 548.20 683.40 546.13 679.21 542.50 676.50 C 534.35 670.28 523.77 668.98 513.94 667.51 C 502.55 667.43 490.66 668.13 480.34 673.44 M 498.73 690.38 C 497.51 693.21 496.19 695.99 494.84 698.76 C 506.19 698.67 517.62 698.78 528.77 696.37 C 520.17 690.01 508.91 690.31 498.73 690.38 Z" />
<path fill="#000" stroke="#000" stroke-width="5" opacity="1.00" d=" M 537.58 529.02 C 554.62 539.75 574.39 545.43 594.32 547.42 C 587.80 554.25 577.46 554.69 568.85 552.39 C 560.45 550.10 551.76 547.63 544.71 542.31 C 540.47 539.20 537.98 534.23 537.58 529.02 Z" />
<path fill="#000" stroke="#000" stroke-width="5" opacity="1.00" d=" M 426.34 547.59 C 445.69 545.49 464.95 540.21 481.66 530.00 C 482.35 533.81 481.89 538.11 478.65 540.67 C 471.69 546.23 463.06 549.14 454.67 551.80 C 445.27 554.63 433.95 554.64 426.34 547.59 Z" />
<path fill="#000" stroke="#000" stroke-width="5" opacity="1.00" d=" M 545.05 569.16 C 551.61 565.72 558.24 560.92 566.00 561.41 C 570.57 562.04 575.72 563.52 578.21 567.76 C 579.60 569.93 580.06 573.14 578.03 575.09 C 574.13 578.39 569.18 580.88 563.95 580.57 C 556.21 580.27 549.25 575.49 545.05 569.16 Z" />
<path fill="#000" stroke="#000" stroke-width="5" opacity="1.00" d=" M 442.53 567.51 C 446.32 564.31 450.88 561.40 456.04 561.57 C 463.52 561.65 470.01 565.78 476.06 569.73 C 471.33 574.46 466.10 579.83 459.10 580.65 C 453.82 580.78 447.77 580.22 444.01 576.04 C 441.86 573.93 440.14 570.06 442.53 567.51 Z" />
<path fill="#000" stroke="#000" stroke-width="5" opacity="1.00" d=" M 490.62 626.60 C 502.51 619.64 517.95 619.93 529.93 626.55 C 517.39 631.36 503.11 631.88 490.62 626.60 Z" />
<path fill="#000" stroke="#000" stroke-width="5" opacity="1.00" d=" M 480.34 673.44 C 490.66 668.13 502.55 667.43 513.94 667.51 C 523.77 668.98 534.35 670.28 542.50 676.50 C 546.13 679.21 548.20 683.40 549.25 687.73 C 535.57 683.44 522.83 674.71 508.00 675.26 C 493.19 675.37 480.57 684.20 466.71 688.19 C 469.30 681.81 474.16 676.48 480.34 673.44 Z" />
<path fill="#000" stroke="#000" stroke-width="5" opacity="1.00" d=" M 498.73 690.38 C 508.91 690.31 520.17 690.01 528.77 696.37 C 517.62 698.78 506.19 698.67 494.84 698.76 C 496.19 695.99 497.51 693.21 498.73 690.38 Z" />
</svg>
